<svg width="42" height="23" viewBox="0 0 42 23" fill="none" xmlns="http://www.w3.org/2000/svg">
<path d="M10.9367 8.29442C8.878 8.29442 5.57554 10.3317 4.18164 11.3503L4.66414 11.9936L5.46832 12.4761L6.43332 13.602L7.39833 14.567L8.2025 16.1753L9.48917 17.1403C10.4006 17.2475 12.2555 17.462 12.3842 17.462C12.5129 17.462 14.475 17.2475 15.44 17.1403L17.2092 16.6578C17.3701 16.3361 17.7561 15.6606 18.0134 15.532C18.2707 15.4033 18.3351 14.835 18.3351 14.567L19.4609 13.602C19.6753 13.3339 19.9756 12.7978 19.4609 12.7978C18.9462 12.7978 16.9948 9.79554 16.0834 8.29442H14.6359H10.9367Z" fill="#FDC040"/>
<path d="M20.4259 2.82606C20.5331 2.39716 20.7476 1.47505 20.7476 1.21771L21.3909 2.02188L22.5168 2.34355H24.1251L24.9293 3.46939V4.75607V5.23857H24.1251H22.9993H21.3909H19.9434L18.8176 4.75607L19.4609 4.27356L20.4259 3.79106V2.82606Z" fill="#FDC040"/>
<path d="M33.7269 0.594911H31.3867C30.4514 0.594496 29.5322 0.746061 28.7222 1.03428C28.6073 1.05354 28.5027 1.09122 28.4187 1.14319L28.3794 1.16742C27.8168 1.40533 27.3335 1.70763 26.9561 2.05797C26.7598 2.23935 26.8186 2.48285 27.0922 2.62095C27.3658 2.75927 27.765 2.74726 28.0154 2.593L29.0408 1.96127L32.3449 2.97895V3.3382L30.1475 4.24179C29.4784 4.51531 28.5888 4.46127 28.0195 4.11196C27.8467 4.00181 27.5906 3.9575 27.35 3.99643C27.1093 4.03515 26.9215 4.15089 26.8586 4.29914C26.7954 4.44739 26.8674 4.60517 27.0462 4.7116C28.0544 5.33608 29.4263 5.68621 30.856 5.68352H34.4152V6.53162H33.0386C31.1319 6.53535 29.4078 7.23147 28.6415 8.30713C28.0366 8.15991 27.4212 8.03278 26.7978 7.92034C27.6205 7.49402 27.7744 6.75006 27.152 6.21027C26.5296 5.67027 25.3388 5.51477 24.4143 5.85289C23.49 6.19101 23.1415 6.9097 23.613 7.50478C21.6429 7.33417 19.6432 7.3381 17.6751 7.51679C17.8182 7.34287 17.8939 7.15072 17.8959 6.95567C17.9019 6.36142 17.2392 5.84378 16.2995 5.70878C15.3598 5.57399 14.3942 5.85786 13.9731 6.39269C13.552 6.92751 13.7882 7.57042 14.5417 7.94167C13.9133 8.05824 13.2959 8.19594 12.6832 8.34833C11.9337 7.25093 10.1921 6.53576 8.25964 6.53162H6.88303V5.68352H10.4422C11.8722 5.68621 13.2445 5.33587 14.2527 4.71118C14.5135 4.54471 14.5098 4.2803 14.2443 4.11673C13.9788 3.95315 13.5496 3.95087 13.2794 4.11155C12.7101 4.46085 11.8201 4.51531 11.1506 4.24179L8.94794 3.33633V2.9773L12.2517 1.95941L13.2774 2.59134C13.5278 2.74539 13.9267 2.75761 14.2006 2.6193C14.4742 2.48119 14.533 2.23749 14.3367 2.0561C13.9593 1.70597 13.476 1.40367 12.9134 1.16576L12.8741 1.14154C12.7901 1.08957 12.6852 1.05188 12.5706 1.03263C11.7617 0.745647 10.8448 0.594703 9.9115 0.594911H7.57134C3.39178 0.598016 0.00504129 2.68452 0 5.25947V6.95567C0.00302477 8.59431 2.15834 9.92216 4.81812 9.92403H8.03648L5.81126 10.8438C5.62372 10.9214 5.51012 11.0506 5.50676 11.1898C5.5034 11.3289 5.61095 11.46 5.79479 11.5409L5.97459 11.6202H3.72652L1.17496 10.0483L0.201651 10.6479L2.95486 12.3441C3.08392 12.4236 3.25902 12.4683 3.44152 12.4683H7.90104L8.71739 12.8276C9.05347 12.9775 9.37343 13.1406 9.6749 13.3164H7.57134C7.4974 13.3164 7.42413 13.3237 7.35389 13.338L3.62737 14.1014L1.17496 12.5926L0.201651 13.1922L2.95486 14.8884C3.08392 14.9679 3.25902 15.0126 3.44152 15.0126C3.51546 15.0126 3.58872 15.0052 3.65896 14.9911L7.68292 14.1645H10.8999C11.1342 14.3604 11.3489 14.565 11.5429 14.7768L11.7549 15.0126H9.63625C9.56231 15.0126 9.48904 15.0199 9.4188 15.0342L5.28898 15.8823C5.10312 15.921 4.95289 16.0065 4.87593 16.1177L2.81102 19.086L4.07605 19.4202L6.01929 16.6271L9.74783 15.8607H12.5195L12.6731 16.0303C12.9006 16.2806 13.186 16.5092 13.5204 16.7088H10.3245C8.42466 16.7103 6.88539 17.6586 6.88303 18.8291V20.1012C6.88539 21.5059 8.73285 22.6441 11.0129 22.6455C12.5333 22.6455 13.7661 21.8861 13.7661 20.9493C13.7661 20.0126 12.5333 19.2531 11.0129 19.2531H13.0778C14.7222 19.2517 16.1355 18.5336 16.4504 17.5391C16.5936 17.5468 16.7367 17.5569 16.8819 17.5569H24.67C24.7302 17.5569 24.788 17.5497 24.8471 17.5485C25.1701 18.5386 26.581 19.2515 28.2204 19.2531H30.2853C28.7649 19.2531 27.5321 20.0126 27.5321 20.9493C27.5321 21.8861 28.7649 22.6455 30.2853 22.6455C32.5653 22.6441 34.4128 21.5059 34.4152 20.1012V18.8291C34.4128 17.6586 32.8735 16.7103 30.9736 16.7088H28.0292C28.4345 16.4641 28.7659 16.1769 29.0079 15.8607H31.5504L35.2809 16.6271L37.2242 19.4202L38.4892 19.086L36.4243 16.1177C36.3473 16.0065 36.1971 15.921 36.0112 15.8823L31.8814 15.0342C31.8108 15.0197 31.7366 15.0124 31.6619 15.0126H29.6306C29.875 14.7157 30.1596 14.4318 30.4816 14.1645H33.6153L37.6392 14.9911C37.7095 15.0052 37.7827 15.0126 37.8567 15.0126C38.0392 15.0126 38.2143 14.9679 38.3433 14.8884L41.0965 13.1922L40.1232 12.5926L37.6708 14.1035L33.9443 13.3402C33.8744 13.3251 33.8008 13.3171 33.7269 13.3164H31.7389C31.9594 13.1934 32.1859 13.0744 32.4272 12.9636L33.497 12.4683H37.8567C38.0392 12.4683 38.2143 12.4236 38.3433 12.3441L41.0965 10.6479L40.1232 10.0483L37.5717 11.6202H35.3327L35.5165 11.5353C35.6916 11.4546 35.7941 11.3272 35.7921 11.1922C35.7901 11.0575 35.6842 10.9311 35.5068 10.8523L33.422 9.92403H36.4801C39.1399 9.92216 41.2952 8.59431 41.2982 6.95567V5.25947C41.2932 2.68452 37.9064 0.598016 33.7269 0.594911ZM8.94794 1.44301H9.9115C10.1753 1.44301 10.4385 1.45916 10.6969 1.49126L8.94794 2.02898V1.44301ZM8.25964 18.8291C8.26065 18.2901 8.81183 17.8098 9.63625 17.6294V19.2531H8.25964V18.8291ZM12.3895 20.9493C12.3895 21.4177 11.7731 21.7974 11.0129 21.7974C9.4924 21.7974 8.25964 21.038 8.25964 20.1012H11.0129C11.7731 20.1012 12.3895 20.481 12.3895 20.9493ZM25.4672 6.53162C25.8473 6.53162 26.1555 6.72149 26.1555 6.95567C26.1555 7.18985 25.8473 7.37972 25.4672 7.37972C25.0871 7.37972 24.7789 7.18985 24.7789 6.95567C24.7789 6.72149 25.0871 6.53162 25.4672 6.53162ZM15.831 6.53162C16.2111 6.53162 16.5193 6.72149 16.5193 6.95567C16.5193 7.18985 16.2111 7.37972 15.831 7.37972C15.4509 7.37972 15.1427 7.18985 15.1427 6.95567C15.1427 6.72149 15.4509 6.53162 15.831 6.53162ZM5.50643 6.95567V9.07592H4.81812C2.91823 9.07448 1.37896 8.12616 1.37661 6.95567V5.68352H5.50643V6.95567ZM1.41458 4.83542C1.76882 2.90483 4.41784 1.44529 7.57134 1.44301V3.56327C7.57134 3.7051 7.68628 3.83741 7.87751 3.91609L10.1182 4.83542H1.41458ZM6.88303 9.07592V7.37972H8.25964C9.64734 7.382 10.8972 7.89736 11.4293 8.68707C11.0189 8.80841 10.6149 8.93802 10.2173 9.07592H6.88303ZM13.0778 18.405H11.0129V17.5569H15.025C14.7323 18.0648 13.9526 18.4044 13.0778 18.405ZM31.6619 18.8291V17.6294C32.4864 17.8098 33.0375 18.2901 33.0386 18.8291V19.2531H31.6619V18.8291ZM33.0386 20.1012C33.0386 21.038 31.8058 21.7974 30.2853 21.7974C29.5251 21.7974 28.9087 21.4177 28.9087 20.9493C28.9087 20.481 29.5251 20.1012 30.2853 20.1012H33.0386ZM30.2853 17.5569V18.405H28.2204C27.3456 18.4044 26.5659 18.0648 26.2732 17.5569H30.2853ZM33.9423 11.2026L31.6021 12.2851C29.919 13.0622 28.6325 14.1198 27.8948 15.3332C27.3873 16.1595 26.1041 16.7068 24.67 16.7088H16.8839C15.6344 16.7086 14.4829 16.2912 13.8763 15.6183L12.746 14.3648C11.9499 13.4846 10.8472 12.724 9.51727 12.1377L7.40329 11.2072L9.51794 10.3332C16.522 7.4377 25.7122 7.53667 32.5479 10.5812L33.9423 11.2026ZM34.4152 9.07592H31.2489C30.8056 8.92291 30.3559 8.77983 29.8992 8.64628C30.447 7.87893 31.6777 7.38241 33.0386 7.37972H34.4152V9.07592ZM30.6046 1.49126C30.8634 1.45916 31.1262 1.44301 31.3901 1.44301H32.3503V2.02898L30.6046 1.49126ZM39.9216 6.95567C39.9192 8.12616 38.38 9.07448 36.4801 9.07592H35.7918V5.68352H39.9216V6.95567ZM35.1035 4.83542H31.18L33.4183 3.91609C33.6106 3.83761 33.7265 3.70531 33.7269 3.56327V1.44301C36.8803 1.44529 39.5294 2.90483 39.8836 4.83542H35.1035Z" fill="#3BB77E"/>
<path d="M17.006 10.8964L16.0327 11.496L17.611 12.4683L16.0327 13.4407L17.006 14.0403L19.0709 12.7681C19.3395 12.6025 19.3395 12.3342 19.0709 12.1685L17.006 10.8964Z" fill="#3BB77E"/>
<path d="M24.2922 10.8964L22.2273 12.1685C21.9587 12.3342 21.9587 12.6025 22.2273 12.7681L24.2922 14.0403L25.2655 13.4407L23.6872 12.4683L25.2655 11.496L24.2922 10.8964Z" fill="#3BB77E"/>
</svg>
