<svg width="26" height="20" viewBox="0 0 26 20" fill="none" xmlns="http://www.w3.org/2000/svg">
<g clip-path="url(#clip0_93_4550)">
<path d="M4.8073 19.8071V18.49C4.81493 18.3793 4.7989 18.2682 4.76027 18.1642C4.72164 18.0602 4.6613 17.9656 4.58325 17.8868C4.50521 17.8079 4.41126 17.7465 4.30766 17.7068C4.20406 17.6671 4.09319 17.6499 3.98242 17.6563C3.83733 17.6468 3.69235 17.6764 3.56262 17.7421C3.43288 17.8077 3.32314 17.907 3.24486 18.0295C3.17354 17.9107 3.07148 17.8133 2.94944 17.7476C2.8274 17.6819 2.68991 17.6504 2.55144 17.6563C2.43074 17.6502 2.31052 17.6757 2.2027 17.7303C2.09489 17.785 2.00323 17.8668 1.93681 17.9678V17.709H1.48047V19.8071H1.94144V18.6527C1.93164 18.5809 1.93781 18.5079 1.9595 18.4388C1.98119 18.3697 2.01787 18.3063 2.06691 18.253C2.11596 18.1998 2.17617 18.158 2.24323 18.1307C2.31029 18.1034 2.38256 18.0913 2.45486 18.0951C2.75779 18.0951 2.91144 18.2927 2.91144 18.6483V19.8158H3.37242V18.6524C3.36306 18.5808 3.36953 18.5079 3.39139 18.4391C3.41324 18.3702 3.44994 18.307 3.4989 18.2538C3.54786 18.2007 3.60789 18.1589 3.67474 18.1315C3.7416 18.1041 3.81366 18.0916 3.88583 18.0951C4.1973 18.0951 4.34681 18.2927 4.34681 18.6483V19.8158L4.80754 19.8071H4.8073ZM11.6263 17.709H10.8756V17.0724H10.4146V17.709H9.99754V18.1261H10.4234V19.0915C10.4234 19.5788 10.6122 19.8685 11.1519 19.8685C11.3537 19.8692 11.5515 19.8129 11.7227 19.7061L11.591 19.3154C11.4685 19.3885 11.3295 19.4293 11.1871 19.4339C10.9675 19.4339 10.8844 19.2934 10.8844 19.0827V18.1258H11.6305L11.6261 17.7088L11.6263 17.709ZM15.5195 17.6563C15.2927 17.6495 15.0805 17.7676 14.9666 17.9636V17.709H14.5144V19.8071H14.971V18.6307C14.971 18.2839 15.1202 18.0907 15.41 18.0907C15.5075 18.0895 15.6044 18.1073 15.6953 18.1434L15.8356 17.7044C15.7313 17.6672 15.6214 17.6479 15.5107 17.6476L15.5195 17.6563ZM9.63364 17.8758C9.3752 17.7222 9.07804 17.646 8.77754 17.6563C8.24657 17.6563 7.89974 17.9107 7.89974 18.3278C7.89974 18.6702 8.15437 18.881 8.62413 18.9466L8.84364 18.9773C9.09364 19.0124 9.21218 19.0783 9.21218 19.1968C9.21218 19.3593 9.04535 19.4515 8.73364 19.4515C8.48299 19.4587 8.23721 19.3814 8.03583 19.2319L7.81632 19.5876C8.08221 19.7732 8.40068 19.8686 8.72486 19.8597C9.33071 19.8597 9.68193 19.5744 9.68193 19.1749C9.68193 18.7756 9.40535 18.6132 8.94876 18.5473L8.72925 18.5166C8.53169 18.4902 8.37388 18.4507 8.37388 18.3102C8.37388 18.1697 8.52315 18.0644 8.77315 18.0644C9.00445 18.0671 9.23119 18.129 9.43169 18.2444L9.63364 17.8756V17.8758ZM21.86 17.6563C21.6332 17.6495 21.421 17.7676 21.3068 17.9636V17.709H20.8549V19.8071H21.3112V18.6307C21.3112 18.2839 21.4605 18.0907 21.7502 18.0907C21.8478 18.0895 21.9449 18.1073 22.0356 18.1434L22.1761 17.7044C22.0718 17.6672 21.9619 17.6479 21.8512 17.6476L21.86 17.6563ZM15.978 18.7536C15.9726 18.9011 15.998 19.048 16.0526 19.1851C16.1073 19.3222 16.1899 19.4463 16.2952 19.5496C16.4006 19.6529 16.5263 19.733 16.6645 19.7849C16.8026 19.8368 16.95 19.8593 17.0973 19.851C17.3714 19.8649 17.6407 19.7756 17.8522 19.6007L17.6327 19.2319C17.4749 19.3523 17.2825 19.4185 17.0841 19.4207C16.9151 19.4074 16.7573 19.3309 16.6423 19.2064C16.5272 19.082 16.4633 18.9187 16.4633 18.7491C16.4633 18.5796 16.5272 18.4163 16.6423 18.2918C16.7573 18.1674 16.9151 18.0908 17.0841 18.0776C17.2826 18.0798 17.4751 18.146 17.6329 18.2663L17.8524 17.8976C17.6408 17.7227 17.3714 17.6335 17.0973 17.6476C16.95 17.6392 16.8026 17.6617 16.6645 17.7136C16.5263 17.7655 16.4006 17.8456 16.2952 17.9489C16.1899 18.0522 16.1073 18.1764 16.0526 18.3134C15.998 18.4505 15.9726 18.5974 15.978 18.7449V18.7536ZM20.2532 18.7536V17.709H19.7968V17.9634C19.7193 17.8636 19.6191 17.7837 19.5046 17.7303C19.3901 17.6768 19.2645 17.6514 19.1383 17.6561C18.8472 17.6561 18.5681 17.7717 18.3623 17.9775C18.1565 18.1833 18.0408 18.4625 18.0408 18.7535C18.0408 19.0446 18.1565 19.3237 18.3623 19.5295C18.5681 19.7353 18.8472 19.851 19.1383 19.851C19.2645 19.8556 19.3901 19.8302 19.5046 19.7768C19.6191 19.7233 19.7193 19.6434 19.7968 19.5436V19.7983H20.2532V18.7536ZM18.5546 18.7536C18.5619 18.6302 18.6051 18.5115 18.679 18.4123C18.7528 18.3131 18.8541 18.2377 18.9703 18.1953C19.0864 18.1529 19.2125 18.1454 19.3329 18.1737C19.4533 18.202 19.5628 18.2649 19.6479 18.3547C19.733 18.4444 19.7899 18.5571 19.8118 18.6788C19.8337 18.8006 19.8195 18.9261 19.7709 19.0398C19.7224 19.1536 19.6417 19.2507 19.5387 19.3191C19.4357 19.3876 19.3149 19.4244 19.1912 19.4251C19.1043 19.4262 19.0181 19.4094 18.938 19.3756C18.858 19.3418 18.7858 19.2918 18.726 19.2287C18.6662 19.1656 18.6201 19.0909 18.5906 19.0091C18.5611 18.9273 18.5489 18.8404 18.5546 18.7536ZM13.0461 17.6561C12.756 17.6616 12.4799 17.7818 12.2782 17.9903C12.0765 18.1988 11.9655 18.4787 11.9696 18.7688C11.9737 19.0589 12.0924 19.3356 12.2999 19.5384C12.5074 19.7412 12.7867 19.8535 13.0768 19.851C13.3926 19.8671 13.703 19.7654 13.948 19.5656L13.7285 19.2276C13.5553 19.3666 13.3407 19.4439 13.1185 19.4471C12.9676 19.4601 12.8175 19.4137 12.7003 19.3178C12.583 19.2219 12.5078 19.0839 12.4907 18.9334H14.049V18.7578C14.049 18.0995 13.6407 17.6607 13.0527 17.6607L13.0461 17.6563V17.6561ZM13.0461 18.0644C13.184 18.0615 13.3175 18.1135 13.417 18.209C13.5166 18.3046 13.5742 18.4357 13.5771 18.5736H12.4797C12.4877 18.4327 12.5505 18.3005 12.6547 18.2054C12.7589 18.1102 12.8962 18.0596 13.0373 18.0644H13.0461ZM24.4824 18.758V16.8658H24.0434V17.9634C23.9659 17.8636 23.8657 17.7837 23.7512 17.7303C23.6367 17.6768 23.5111 17.6514 23.3849 17.6561C23.0938 17.6561 22.8147 17.7717 22.6089 17.9775C22.4032 18.1833 22.2875 18.4624 22.2875 18.7534C22.2875 19.0444 22.4032 19.3235 22.6089 19.5293C22.8147 19.7351 23.0938 19.8507 23.3849 19.8507C23.5111 19.8554 23.6367 19.83 23.7512 19.7765C23.8657 19.7231 23.9659 19.6432 24.0434 19.5434V19.798H24.4824V18.7578V18.758ZM25.2439 19.5019C25.2724 19.5016 25.3008 19.5068 25.3273 19.5173C25.3525 19.5276 25.3756 19.5425 25.3953 19.5612C25.4202 19.585 25.4386 19.6147 25.4489 19.6475C25.4592 19.6803 25.4611 19.7152 25.4543 19.7489C25.4475 19.7827 25.4323 19.8141 25.4101 19.8404C25.3879 19.8667 25.3594 19.8869 25.3273 19.8993C25.301 19.9109 25.2726 19.9168 25.2439 19.9168C25.2023 19.9165 25.1616 19.9044 25.1266 19.8818C25.0916 19.8593 25.0638 19.8273 25.0463 19.7895C25.0353 19.7638 25.0297 19.7362 25.0297 19.7083C25.0297 19.6804 25.0353 19.6527 25.0463 19.6271C25.0575 19.6025 25.0731 19.5801 25.0924 19.5612C25.1122 19.5425 25.1353 19.5276 25.1605 19.5173C25.1891 19.5059 25.2197 19.5007 25.2505 19.5019H25.2439ZM25.2439 19.8727C25.2652 19.8729 25.2863 19.8687 25.3059 19.8605C25.3256 19.8522 25.3433 19.84 25.358 19.8246C25.3855 19.7947 25.4007 19.7555 25.4007 19.7149C25.4007 19.6742 25.3855 19.6351 25.358 19.6051C25.3356 19.5817 25.3065 19.5658 25.2747 19.5595C25.2429 19.5532 25.2099 19.5569 25.1802 19.57C25.1605 19.5781 25.1426 19.59 25.1275 19.6051C25.1001 19.6351 25.0849 19.6742 25.0849 19.7149C25.0849 19.7555 25.1001 19.7947 25.1275 19.8246C25.1427 19.8395 25.1605 19.8515 25.1802 19.8597C25.2022 19.8693 25.2263 19.8736 25.2505 19.8729H25.2439V19.8727ZM25.2571 19.6117C25.2775 19.6107 25.2977 19.6169 25.3141 19.6293C25.3208 19.6348 25.3261 19.6419 25.3294 19.65C25.3328 19.658 25.3343 19.6667 25.3336 19.6754C25.3344 19.69 25.3288 19.7044 25.3185 19.7149C25.3057 19.7264 25.2894 19.7333 25.2722 19.7344L25.3361 19.8071H25.2856L25.2263 19.7346H25.2066V19.8071H25.1649V19.6139L25.2571 19.6115V19.6117ZM25.2088 19.649V19.7017H25.2571C25.2656 19.7041 25.2749 19.7041 25.2834 19.7017C25.2849 19.6986 25.2857 19.6953 25.2857 19.6918C25.2857 19.6884 25.2849 19.685 25.2834 19.6819C25.2849 19.6789 25.2857 19.6755 25.2857 19.6721C25.2857 19.6686 25.2849 19.6652 25.2834 19.6622C25.2748 19.6596 25.2656 19.6596 25.2571 19.6622L25.2088 19.649ZM22.7946 18.758C22.8019 18.6346 22.8451 18.5159 22.919 18.4167C22.9928 18.3175 23.0941 18.242 23.2103 18.1996C23.3264 18.1572 23.4525 18.1497 23.5729 18.1781C23.6933 18.2064 23.8028 18.2693 23.8879 18.3591C23.973 18.4488 24.0299 18.5615 24.0518 18.6832C24.0737 18.805 24.0595 18.9304 24.0109 19.0442C23.9624 19.158 23.8817 19.2551 23.7787 19.3235C23.6757 19.392 23.5549 19.4288 23.4312 19.4295C23.3443 19.4306 23.2581 19.4138 23.178 19.38C23.098 19.3462 23.0258 19.2961 22.966 19.2331C22.9062 19.17 22.8601 19.0952 22.8306 19.0135C22.8011 18.9317 22.7889 18.8448 22.7946 18.758ZM7.38169 18.758V17.709H6.9251V17.9634C6.84758 17.8636 6.74743 17.7837 6.63292 17.7303C6.51842 17.6768 6.39284 17.6514 6.26657 17.6561C5.97551 17.6561 5.69637 17.7717 5.49056 17.9775C5.28475 18.1833 5.16913 18.4625 5.16913 18.7535C5.16913 19.0446 5.28475 19.3237 5.49056 19.5295C5.69637 19.7353 5.97551 19.851 6.26657 19.851C6.39284 19.8556 6.51842 19.8302 6.63292 19.7768C6.74743 19.7233 6.84758 19.6434 6.9251 19.5436V19.7983H7.38169V18.758ZM5.68291 18.758C5.69019 18.6346 5.73341 18.5159 5.80726 18.4167C5.88112 18.3175 5.98237 18.242 6.09855 18.1996C6.21474 18.1572 6.34079 18.1497 6.46118 18.1781C6.58158 18.2064 6.69106 18.2693 6.77616 18.3591C6.86125 18.4488 6.91824 18.5615 6.94011 18.6832C6.96198 18.805 6.94777 18.9304 6.89924 19.0442C6.85071 19.158 6.76997 19.2551 6.66696 19.3235C6.56395 19.392 6.44317 19.4288 6.31949 19.4295C6.23222 19.4313 6.14554 19.4148 6.06495 19.3813C5.98437 19.3478 5.91163 19.2979 5.85136 19.2347C5.79109 19.1716 5.7446 19.0966 5.71484 19.0145C5.68509 18.9325 5.67272 18.8451 5.67852 18.758H5.68291Z" fill="#231F20"/>
<path d="M9.48242 1.72095H16.3956V14.1449H9.48242V1.72095Z" fill="#FF5F00"/>
<path d="M9.92113 7.93407C9.91984 6.73729 10.1909 5.55592 10.7138 4.47941C11.2367 3.40291 11.9977 2.45951 12.9392 1.72066C9.69942 -0.824952 5.04771 -0.45422 2.25259 2.57261C-0.54253 5.59944 -0.54253 10.266 2.25259 13.2929C5.04771 16.3197 9.69942 16.6904 12.9389 14.1448C11.9978 13.4062 11.2371 12.4632 10.7142 11.3871C10.1914 10.3111 9.92018 9.13017 9.92113 7.93383V7.93407Z" fill="#EB001B"/>
<path d="M25.7229 7.93411C25.7227 9.41654 25.3055 10.869 24.5189 12.1255C23.7323 13.382 22.608 14.3919 21.2746 15.0397C19.9412 15.6875 18.4525 15.9471 16.9785 15.7888C15.5046 15.6305 14.1049 15.0607 12.9395 14.1446C13.8801 13.4053 14.6406 12.4621 15.1636 11.386C15.6865 10.3099 15.9583 9.12907 15.9583 7.93265C15.9583 6.73622 15.6865 5.55542 15.1636 4.47934C14.6406 3.40325 13.8801 2.45998 12.9395 1.7207C14.1049 0.804468 15.5046 0.234629 16.9787 0.0763126C18.4527 -0.0820037 19.9415 0.177591 21.2749 0.825425C22.6084 1.47326 23.7327 2.48319 24.5193 3.73979C25.3059 4.99638 25.723 6.44894 25.7231 7.93143V7.93387L25.7229 7.93411ZM24.968 12.828V12.5731H25.0712V12.5205H24.8102V12.5731H24.9219V12.8278H24.9682L24.968 12.828ZM25.4751 12.828V12.5207H25.396L25.3038 12.7402L25.2116 12.5207H25.1414V12.828H25.1985V12.5975L25.2838 12.7973H25.3434L25.4287 12.5975V12.8302L25.4751 12.8278V12.828Z" fill="#F79E1B"/>
</g>
<defs>
<clipPath id="clip0_93_4550">
<rect width="25.8537" height="20" fill="white"/>
</clipPath>
</defs>
</svg>
