<svg width="82" height="20" viewBox="0 0 82 20" fill="none" xmlns="http://www.w3.org/2000/svg">
<g clip-path="url(#clip0_93_4556)">
<path d="M30.2706 4.55469H25.7924C25.4859 4.55469 25.2253 4.77763 25.1771 5.07998L23.3659 16.5635C23.3575 16.6168 23.3607 16.6714 23.3754 16.7233C23.3901 16.7753 23.4159 16.8234 23.4511 16.8644C23.4862 16.9054 23.5298 16.9383 23.5789 16.9608C23.6279 16.9833 23.6813 16.9948 23.7353 16.9947H25.8736C26.1794 16.9947 26.4406 16.7717 26.4883 16.4688L26.9765 13.3712C27.0236 13.0682 27.2853 12.8453 27.5912 12.8453H29.0088C31.9588 12.8453 33.6612 11.4182 34.1059 8.58939C34.3059 7.35175 34.1141 6.37939 33.5353 5.69822C32.8983 4.95057 31.7694 4.55469 30.2706 4.55469ZM30.7871 8.74881C30.5424 10.3559 29.3147 10.3559 28.1271 10.3559H27.4512L27.9253 7.35469C27.9392 7.26688 27.984 7.18692 28.0516 7.12922C28.1192 7.07152 28.2052 7.03987 28.2941 7.03998H28.6041C29.413 7.03998 30.1753 7.03998 30.57 7.50057C30.8053 7.77586 30.8771 8.18469 30.7877 8.74881H30.7871ZM43.6571 8.69704H41.5118C41.4228 8.69707 41.3368 8.72885 41.2692 8.78665C41.2016 8.84444 41.1568 8.92447 41.143 9.01233L41.0488 9.61233L40.8983 9.39469C40.4336 8.72057 39.3983 8.49528 38.3653 8.49528C35.9959 8.49528 33.9712 10.2906 33.5771 12.8082C33.3724 14.0641 33.6641 15.2653 34.3765 16.1023C35.0294 16.8729 35.9647 17.1935 37.0777 17.1935C38.9871 17.1935 40.0459 15.9659 40.0459 15.9659L39.95 16.5617C39.9414 16.6151 39.9445 16.6696 39.959 16.7216C39.9736 16.7736 39.9993 16.8219 40.0343 16.863C40.0693 16.9041 40.1128 16.9371 40.1619 16.9597C40.2109 16.9824 40.2643 16.9941 40.3183 16.9941H42.25C42.5571 16.9941 42.8165 16.7712 42.8647 16.4682L44.0236 9.12822C44.0322 9.07506 44.0291 9.02066 44.0146 8.96879C44.0001 8.91693 43.9746 8.86883 43.9396 8.82782C43.9047 8.78681 43.8613 8.75388 43.8125 8.7313C43.7636 8.70872 43.7104 8.69703 43.6565 8.69704H43.6571ZM40.6677 12.8712C40.4606 14.0965 39.4883 14.9182 38.2483 14.9182C37.6253 14.9182 37.1277 14.7188 36.8083 14.3406C36.4912 13.9641 36.3706 13.4294 36.4718 12.8335C36.6647 11.6188 37.6541 10.77 38.8747 10.77C39.4841 10.77 39.9788 10.9723 40.3047 11.3541C40.6318 11.7394 40.7612 12.2776 40.6677 12.8712ZM55.0783 8.69704H52.9236C52.7177 8.69704 52.5247 8.79939 52.4083 8.96998L49.4359 13.3482L48.1759 9.14116C48.1373 9.01284 48.0583 8.90037 47.9508 8.82039C47.8433 8.7404 47.7129 8.69716 47.5788 8.69704H45.4612C45.4017 8.69695 45.3431 8.71105 45.2902 8.73817C45.2373 8.76529 45.1916 8.80465 45.157 8.85298C45.1224 8.90131 45.0998 8.9572 45.0911 9.01602C45.0824 9.07484 45.0879 9.13488 45.1071 9.19116L47.4806 16.157L45.2488 19.307C45.209 19.3629 45.1854 19.4286 45.1805 19.497C45.1757 19.5654 45.1898 19.6339 45.2212 19.6948C45.2527 19.7557 45.3004 19.8068 45.359 19.8423C45.4177 19.8779 45.485 19.8966 45.5536 19.8965H47.7059C47.91 19.8965 48.1012 19.797 48.2177 19.6294L55.3847 9.28351C55.4238 9.2276 55.4467 9.16205 55.4511 9.094C55.4555 9.02594 55.4412 8.95798 55.4096 8.89752C55.3781 8.83705 55.3306 8.78639 55.2723 8.75104C55.2139 8.7157 55.147 8.69702 55.0788 8.69704H55.0783Z" fill="#253B80"/>
<path d="M62.2141 4.55467H57.7347C57.4288 4.55467 57.1688 4.77761 57.1205 5.07996L55.3094 16.5635C55.3008 16.6167 55.304 16.6712 55.3186 16.7231C55.3332 16.775 55.3589 16.8231 55.3939 16.8641C55.4289 16.9051 55.4724 16.938 55.5214 16.9606C55.5704 16.9831 55.6237 16.9947 55.6776 16.9947H57.9758C58.0795 16.9945 58.1798 16.9573 58.2585 16.8898C58.3372 16.8223 58.3893 16.7289 58.4052 16.6264L58.9194 13.3711C58.9664 13.0682 59.2282 12.8453 59.5335 12.8453H60.9511C63.9011 12.8453 65.6035 11.4182 66.0488 8.58937C66.2494 7.35172 66.0564 6.37937 65.477 5.69819C64.8411 4.95055 63.7123 4.55467 62.2141 4.55467ZM62.7305 8.74878C62.4864 10.3558 61.2588 10.3558 60.0705 10.3558H59.3958L59.8705 7.35467C59.8842 7.26696 59.9287 7.18702 59.9961 7.1293C60.0636 7.07158 60.1494 7.03989 60.2382 7.03996H60.5482C61.3558 7.03996 62.1194 7.03996 62.5141 7.50055C62.7494 7.77584 62.82 8.18467 62.7305 8.74878ZM75.6 8.69702H73.4564C73.3675 8.69685 73.2816 8.72858 73.2141 8.78644C73.1466 8.8443 73.1022 8.92445 73.0888 9.01231L72.9935 9.61231L72.8429 9.39467C72.3788 8.72055 71.3441 8.49525 70.3105 8.49525C67.9411 8.49525 65.9176 10.2905 65.5235 12.8082C65.3194 14.0641 65.6094 15.2653 66.3217 16.1023C66.9764 16.8729 67.91 17.1935 69.0229 17.1935C70.9323 17.1935 71.9911 15.9658 71.9911 15.9658L71.8952 16.5617C71.8867 16.6151 71.8899 16.6697 71.9046 16.7218C71.9192 16.7738 71.945 16.8221 71.9801 16.8632C72.0153 16.9043 72.0589 16.9373 72.108 16.9599C72.1571 16.9825 72.2106 16.9942 72.2647 16.9941H74.1958C74.5017 16.9941 74.7623 16.7711 74.81 16.4682L75.97 9.12819C75.9782 9.0748 75.9748 9.02026 75.9599 8.96831C75.9451 8.91637 75.9192 8.86825 75.8839 8.82728C75.8487 8.78631 75.805 8.75345 75.7559 8.73096C75.7068 8.70848 75.6534 8.6969 75.5994 8.69702H75.6ZM72.6105 12.8711C72.4047 14.0964 71.4311 14.9182 70.1911 14.9182C69.5694 14.9182 69.0705 14.7188 68.7511 14.3405C68.4341 13.9641 68.3147 13.4294 68.4147 12.8335C68.6088 11.6188 69.5964 10.77 70.8176 10.77C71.4264 10.77 71.9217 10.9723 72.2476 11.3541C72.5758 11.7394 72.7052 12.2776 72.6105 12.8711ZM78.1282 4.86996L76.29 16.5641C76.2815 16.6173 76.2847 16.6717 76.2994 16.7235C76.314 16.7753 76.3397 16.8234 76.3747 16.8643C76.4097 16.9053 76.4532 16.9381 76.5022 16.9606C76.5511 16.9831 76.6043 16.9947 76.6582 16.9947H78.5058C78.8129 16.9947 79.0735 16.7717 79.1205 16.4688L80.9335 4.98584C80.942 4.93257 80.9388 4.87809 80.9243 4.82615C80.9097 4.77421 80.884 4.72606 80.849 4.68501C80.814 4.64397 80.7705 4.611 80.7215 4.5884C80.6725 4.56579 80.6192 4.55408 80.5653 4.55408H78.4958C78.407 4.55453 78.3213 4.58656 78.2539 4.64443C78.1866 4.7023 78.142 4.78224 78.1282 4.86996Z" fill="#179BD7"/>
<path d="M4.76802 19.2258L5.11037 17.0505L4.34802 17.0329H0.705078L3.23625 0.981088C3.24375 0.931993 3.26869 0.887246 3.30651 0.85505C3.34432 0.822853 3.39248 0.805366 3.44214 0.805794H9.58449C11.6233 0.805794 13.031 1.22991 13.7657 2.06756C14.1098 2.4605 14.3292 2.87109 14.4351 3.32285C14.5468 3.79697 14.5486 4.36403 14.4398 5.05462L14.4321 5.10462V5.54756L14.7763 5.74285C15.0668 5.89638 15.2968 6.07227 15.4739 6.27403C15.768 6.6105 15.9592 7.03697 16.0398 7.54344C16.1227 8.06403 16.0951 8.68344 15.9592 9.38462C15.8021 10.1917 15.5474 10.894 15.2045 11.4687C14.9019 11.9839 14.495 12.4301 14.0098 12.7787C13.5539 13.1023 13.0121 13.3476 12.4004 13.5046C11.8068 13.6593 11.1304 13.7376 10.3886 13.7376H9.91037C9.5692 13.7376 9.23684 13.8605 8.97625 14.0811C8.71587 14.304 8.54306 14.6121 8.48861 14.9505L8.45331 15.1464L7.84743 18.9805L7.82037 19.1217C7.81331 19.1658 7.80037 19.1881 7.78214 19.2029C7.76445 19.2176 7.74224 19.2259 7.7192 19.2264H4.76802V19.2258Z" fill="#253B80"/>
<path d="M15.1028 5.15588C15.0846 5.27353 15.0634 5.39294 15.0399 5.51588C14.2299 9.67471 11.4587 11.1118 7.91929 11.1118H6.11694C5.68459 11.1118 5.31988 11.4259 5.25224 11.8529L4.32929 17.7041L4.06812 19.3629C4.05775 19.4287 4.06176 19.496 4.07988 19.5601C4.09799 19.6242 4.12977 19.6836 4.17303 19.7343C4.2163 19.7849 4.27002 19.8256 4.33051 19.8535C4.39099 19.8814 4.4568 19.8958 4.52341 19.8959H7.71929C8.09812 19.8959 8.41929 19.6212 8.47929 19.2476L8.51047 19.0853L9.11224 15.2665L9.15106 15.0571C9.20988 14.6824 9.53224 14.4071 9.91047 14.4071H10.3887C13.4852 14.4071 15.9093 13.15 16.6181 9.51177C16.914 7.99177 16.7605 6.72294 15.9775 5.83059C15.7294 5.55442 15.433 5.32578 15.1028 5.15588Z" fill="#179BD7"/>
<path d="M14.2543 4.81768C13.9957 4.7429 13.7326 4.68455 13.4667 4.64297C12.9412 4.56222 12.4101 4.52347 11.8784 4.52709H7.06372C6.88056 4.52701 6.70341 4.59242 6.56425 4.71151C6.42509 4.8306 6.33311 4.99553 6.30489 5.1765L5.28136 11.6641L5.25195 11.8536C5.28396 11.6472 5.3887 11.459 5.54728 11.3231C5.70585 11.1872 5.9078 11.1124 6.11666 11.1124H7.91901C11.4584 11.1124 14.2296 9.67473 15.0396 5.5165C15.0637 5.39356 15.0843 5.27356 15.1025 5.1565C14.8888 5.04453 14.6661 4.95067 14.4367 4.87591C14.3778 4.85591 14.3167 4.83709 14.2549 4.81885L14.2543 4.81768Z" fill="#222D65"/>
<path d="M6.30564 5.17643C6.33365 4.99547 6.42562 4.83054 6.56485 4.7116C6.70409 4.59266 6.88135 4.52759 7.06447 4.52819H11.8786C12.4492 4.52819 12.9815 4.56525 13.4674 4.64408C13.7963 4.69575 14.1206 4.77304 14.4374 4.87525C14.6667 4.95029 14.8894 5.04414 15.1033 5.15584C15.3445 3.61878 15.1015 2.5729 14.2704 1.62525C13.3545 0.581724 11.7009 0.135254 9.58506 0.135254H3.4427C3.01035 0.135254 2.64211 0.44996 2.57506 0.877019L0.0162319 17.0941C0.00433022 17.1694 0.00889598 17.2464 0.0296148 17.3198C0.0503336 17.3932 0.086713 17.4612 0.136248 17.5192C0.185782 17.5772 0.247295 17.6237 0.316549 17.6556C0.385803 17.6875 0.461152 17.7041 0.537408 17.7041H4.32917L5.28211 11.6635L6.30564 5.17702V5.17643Z" fill="#253B80"/>
</g>
<defs>
<clipPath id="clip0_93_4556">
<rect width="81.1765" height="20" fill="white"/>
</clipPath>
</defs>
</svg>
