<svg width="60" height="20" viewBox="0 0 60 20" fill="none" xmlns="http://www.w3.org/2000/svg">
<g clip-path="url(#clip0_93_4564)">
<path d="M26.0011 19.2074H21.2565L24.2245 0.856714H28.9691L26.0011 19.2074ZM43.2025 1.30538C42.2658 0.933381 40.7825 0.524048 38.9458 0.524048C34.2598 0.524048 30.9605 3.02271 30.9398 6.59471C30.9011 9.23071 33.3025 10.6947 35.0985 11.5734C36.9345 12.4714 37.5585 13.0574 37.5585 13.858C37.5398 15.0874 36.0751 15.654 34.7091 15.654C32.8145 15.654 31.7991 15.362 30.2565 14.678L29.6318 14.3847L28.9678 18.5047C30.0811 19.0114 32.1311 19.4614 34.2598 19.4807C39.2385 19.4807 42.4798 17.0207 42.5185 13.214C42.5371 11.1247 41.2691 9.52405 38.5358 8.21605C36.8758 7.37605 35.8598 6.81005 35.8598 5.95138C35.8791 5.17005 36.7198 4.37005 38.5931 4.37005C40.1351 4.33138 41.2685 4.70205 42.1265 5.07271L42.5565 5.26805L43.2018 1.30538H43.2025ZM49.5085 12.7067C49.8991 11.652 51.4031 7.57205 51.4031 7.57205C51.3831 7.61138 51.7931 6.49871 52.0271 5.81471L52.3591 7.39605C52.3591 7.39605 53.2578 11.7894 53.4525 12.706H49.5085V12.7067ZM55.3658 0.856048H51.6958C50.5638 0.856048 49.7038 1.18738 49.2158 2.37871L42.1671 19.2067H47.1465C47.1465 19.2067 47.9665 16.9414 48.1418 16.4534H54.2345C54.3705 17.098 54.8005 19.2067 54.8005 19.2067H59.1938L55.3658 0.856714V0.856048ZM5.60581 3.24271C4.14581 2.38938 2.48114 1.70338 0.619141 1.22671L0.697141 0.856048H8.33114C9.36647 0.894715 10.2058 1.22605 10.4791 2.39871L12.1378 10.83L12.1385 10.8314L12.6465 13.3694L17.2931 0.856048H22.3105L14.8525 19.188H9.83447L5.60581 3.24271Z" fill="#1A1F71"/>
</g>
<defs>
<clipPath id="clip0_93_4564">
<rect width="59.3333" height="20" fill="white"/>
</clipPath>
</defs>
</svg>
