<svg width="150" height="15" viewBox="0 0 150 15" fill="none" xmlns="http://www.w3.org/2000/svg">
<path d="M147.457 9.78799C143.271 9.78799 141.308 7.9886 138.824 5.71049C136.056 3.17253 132.919 0.295898 126.754 0.295898C120.589 0.295898 117.452 3.17253 114.684 5.71049C112.2 7.9886 110.238 9.78799 106.051 9.78799C101.865 9.78799 99.9024 7.9886 97.4184 5.71049C94.6504 3.17253 91.5136 0.295898 85.3487 0.295898C79.1838 0.295898 76.0471 3.17253 73.2791 5.71079C70.7953 7.98889 68.833 9.78799 64.6469 9.78799C60.4609 9.78799 58.4989 7.9886 56.0149 5.71079C53.2472 3.17282 50.1104 0.295898 43.9458 0.295898C37.7812 0.295898 34.6445 3.17253 31.8765 5.71049C29.3927 7.9886 27.4304 9.78799 23.2442 9.78799C19.0581 9.78799 17.0958 7.9886 14.6117 5.71049C11.8438 3.17282 8.70696 0.295898 2.54236 0.295898C1.13788 0.295898 0 1.43436 0 2.83826C0 4.24215 1.13788 5.38061 2.54236 5.38061C6.72856 5.38061 8.69085 7.18001 11.1746 9.45782C13.9423 11.9958 17.0794 14.8727 23.2442 14.8727C29.4088 14.8727 32.5456 11.9961 35.3136 9.4584C37.7974 7.1803 39.7596 5.38091 43.9458 5.38091C48.1317 5.38091 50.0937 7.1803 52.5778 9.45811C55.3455 11.9961 58.4823 14.873 64.6469 14.873C70.8114 14.873 73.9482 11.9967 76.7162 9.4587C79.2002 7.1806 81.1625 5.3812 85.3487 5.3812C89.5349 5.3812 91.4972 7.18059 93.9813 9.4584C96.7492 11.9964 99.8863 14.8733 106.051 14.8733C112.216 14.8733 115.353 11.997 118.121 9.45899C120.605 7.18089 122.567 5.38149 126.754 5.38149C130.94 5.38149 132.903 7.18089 135.387 9.45899C138.155 11.997 141.292 14.8733 147.457 14.8733C148.862 14.8733 149.999 13.7348 149.999 12.3309C150 10.9265 148.862 9.78799 147.457 9.78799Z" fill="#BCE3C9"/>
</svg>
