<svg width="80" height="20" viewBox="0 0 80 20" fill="none" xmlns="http://www.w3.org/2000/svg">
<g clip-path="url(#clip0_93_4548)">
<path d="M11.8932 3.80656C11.915 3.78516 11.9347 3.76332 11.9556 3.74105L12.0591 3.61527C12.2889 3.31916 12.4317 2.95143 12.4317 2.54745C12.4317 2.08298 12.2472 1.63753 11.9187 1.30909C11.5903 0.980657 11.1448 0.796145 10.6804 0.796145C10.2244 0.796193 9.78666 0.974934 9.46099 1.29402L0.335849 11.2049C0.11822 11.5019 0.000610659 11.8604 0 12.2286C0 12.693 0.184512 13.1385 0.512946 13.4669C0.84138 13.7954 1.28683 13.9799 1.75131 13.9799H10.462C10.9265 13.9799 11.3719 13.7954 11.7003 13.4669C12.0288 13.1385 12.2133 12.693 12.2133 12.2286C12.2133 11.7641 12.0288 11.3186 11.7003 10.9902C11.3719 10.6618 10.9265 10.4773 10.462 10.4773H5.94396C5.94396 10.4773 5.60855 10.4091 5.91034 10.1078L11.8932 3.80656ZM8.28181 0.78479H1.87796V0.789157C1.42104 0.801816 0.987083 0.992267 0.668432 1.31999C0.349781 1.64771 0.171584 2.08684 0.171755 2.54394C0.171926 3.00104 0.350451 3.44004 0.669346 3.76752C0.988242 4.09501 1.42234 4.28513 1.87927 4.29745C1.89194 4.29745 1.90373 4.29352 1.91683 4.29308H5.136L8.28181 0.785227V0.78479ZM18.2367 1.08483C18.2367 1.08483 14.7442 1.11453 13.9685 2.96541C13.9685 2.96541 13.7292 4.12931 13.8187 4.90539C13.8187 4.90539 15.5211 3.63973 17.759 3.59212C20.565 3.53229 20.2964 5.92079 20.2964 5.92079C20.2964 5.92079 12.4164 5.02505 12.4164 10.607C12.4164 10.607 12.4159 14.2489 16.7143 14.2489C16.7143 14.2489 19.1024 14.0393 20.2366 12.0988V13.92C20.2366 13.92 23.789 14.2786 23.789 11.2341V4.75602C23.7885 4.75602 23.6099 1.08439 18.2367 1.08439V1.08483ZM17.738 11.6591C15.9037 11.7233 15.864 9.80424 15.864 9.80424C15.864 9.80424 15.6133 8.40975 18.0782 8.1678C18.0782 8.1678 20.3178 7.88086 20.3361 8.36171C20.3366 8.36171 20.6397 11.5573 17.7384 11.6591H17.738ZM32.7193 1.20799C32.7193 1.20799 29.4001 1.27262 28.6883 3.40782V1.21803C28.6883 1.21803 24.8764 0.835451 24.8764 3.90526C24.8764 6.97507 24.9122 19.8199 24.9122 19.8199C24.9122 19.8199 28.6848 20.1802 28.6848 17.0348V12.4002C28.6848 12.4002 29.9316 14.3952 32.3319 14.3952C35.0834 14.3952 37.9435 12.5168 37.9435 7.30612C37.944 1.13199 32.7189 1.20842 32.7189 1.20842L32.7193 1.20799ZM30.9436 11.3381C29.8548 11.3381 28.5262 9.92828 28.5262 7.4616C28.5262 4.99492 29.8233 3.90526 31.296 3.90526C31.296 3.90526 34.1632 4.03366 34.1632 7.38124C34.1632 10.7288 32.1848 11.3381 30.9436 11.3381ZM46.3891 1.20799C46.3891 1.20799 43.0699 1.27262 42.3572 3.40782V1.21803C42.3572 1.21803 38.5462 0.835451 38.5462 3.90526C38.5462 6.97507 38.5812 19.8199 38.5812 19.8199C38.5812 19.8199 42.3546 20.1802 42.3546 17.0348V12.4002C42.3546 12.4002 43.601 14.3952 46.0013 14.3952C48.7532 14.3952 51.6133 12.5168 51.6133 7.30612C51.6133 1.13199 46.3891 1.20842 46.3891 1.20842V1.20799ZM44.6138 11.3381C43.5241 11.3381 42.1956 9.92828 42.1956 7.4616C42.1956 4.99492 43.4923 3.90526 44.9658 3.90526C44.9658 3.90526 47.833 4.03366 47.833 7.38124C47.833 10.7288 45.8537 11.3381 44.6134 11.3381H44.6138ZM61.3167 2.06442C60.4326 1.60567 59.4513 1.36574 58.4552 1.36477C54.9435 1.36477 52.0973 4.26601 52.0973 7.84505C52.0973 11.4241 54.9435 14.3249 58.4552 14.3249C58.6404 14.3249 58.8238 14.3153 59.0055 14.2996C59.4711 14.2389 60.4184 14.065 61.356 13.6051C61.9043 13.3157 62.4075 12.9479 62.8497 12.5133C63.3165 12.0029 63.6378 11.3765 63.7799 10.6995H63.241C63.241 10.6995 62.2439 11.7202 59.1828 11.7202C56.1213 11.7202 55.6938 8.65869 55.6938 8.65869H64.021C64.1031 7.7066 64.2577 3.71485 61.3167 2.06399V2.06442ZM60.6145 6.59468H55.6785C55.6785 6.59468 55.8051 3.74629 58.2731 3.74629C60.7407 3.74629 60.614 6.59468 60.614 6.59468H60.6145ZM68.7421 8.09399C68.7421 5.62731 69.8815 4.56517 71.3551 4.56517C71.3551 4.56517 72.0202 4.59967 72.7098 5.00365V1.21104C72.2508 1.23288 69.4011 1.44601 68.7473 3.40782V1.21759C68.7473 1.21759 64.9346 0.835451 64.9346 3.9057C64.9346 6.97507 64.9486 14.0349 64.9486 14.0349C64.9486 14.0349 68.7443 14.2965 68.7443 11.1516C68.7443 8.40757 68.7421 8.1333 68.7421 8.09443V8.09399ZM75.3848 1.42592H74.4144V1.08526H76.7601V1.42592H75.7897V4.28391H75.3853V1.42592H75.3848ZM77.3073 1.08526H77.7904L78.4097 2.80163L78.6394 3.45499H78.6582L78.8831 2.80163L79.4967 1.08526H79.9754V4.28391H79.5897V2.52387C79.5897 2.24086 79.6238 1.86003 79.6434 1.57746H79.6238L79.3705 2.28934L78.756 3.96204H78.5219L77.9079 2.28934L77.6537 1.57746H77.6349C77.6537 1.86003 77.6834 2.24043 77.6834 2.52343V4.28391H77.3078V1.08483H77.3073V1.08526Z" fill="#3D80C0"/>
</g>
<defs>
<clipPath id="clip0_93_4548">
<rect width="80" height="20" fill="white"/>
</clipPath>
</defs>
</svg>
